<?xml version="1.0" encoding="UTF-8"?>
<svg width="300" height="300" version="1.1" viewBox="-23.044 -18.007 1299.5 1299.5" xmlns="http://www.w3.org/2000/svg" xmlns:cc="http://creativecommons.org/ns#" xmlns:dc="http://purl.org/dc/elements/1.1/" xmlns:rdf="http://www.w3.org/1999/02/22-rdf-syntax-ns#">
  <title>Linktree Logo - Flat Icon</title>
  <metadata>
    <rdf:RDF>
      <cc:Work rdf:about="">
        <dc:format>image/svg+xml</dc:format>
        <dc:type rdf:resource="http://purl.org/dc/dcmitype/StillImage"/>
        <dc:title>Linktree Logo - Flat Icon</dc:title>
        <dc:date>2021/04/16</dc:date>
        <dc:creator>
          <cc:Agent>
            <dc:title>Addie GS</dc:title>
          </cc:Agent>
        </dc:creator>
        <dc:source>WorldVectorLogo Linktree Logo WordMark</dc:source>
        <dc:relation>https://worldvectorlogo.com/logo/linktree-1</dc:relation>
        <dc:description>A flat, black-on-transparent icon of the Linktree logo suitable for use in decorating text links to Linktree pages.</dc:description>
      </cc:Work>
    </rdf:RDF>
  </metadata>
  <path d="m1270.4 794.79-376.95-675.26c-21.774-38.997-78.64-38.997-100.41 0l-166.37 298.03 210.58 377.23a46.748 46.068 0 0 1 5.8954 25.468c-1.7153 25.162-24.793 47.276-56.072 47.289h0.0258c-0.0198 0-0.0335 6e-3 -0.0549 6e-3h-68.168v257.5a48.813 48.103 0 0 0 48.814 48.104h151.11a48.813 48.103 0 0 0 48.813-48.103v-257.51h252.57c41.726 0 68.867-39.328 50.208-72.756z" stroke-width=".54542"/>
  <path d="m460.31 119.53c-21.769-38.998-78.634-38.998-100.41 0l-376.95 675.26c-18.658 33.427 8.4816 72.756 50.206 72.756h252.58v257.51a48.813 48.103 0 0 0 48.811 48.102h151.11a48.813 48.103 0 0 0 48.813-48.103v-257.5h-68.167c-0.0192 0-0.0341-7e-3 -0.055-7e-3h0.0258c-31.279-0.0124-54.357-22.128-56.072-47.289a46.745 46.065 0 0 1 5.8949-25.467l210.58-377.23z" stroke-width=".54542"/>
</svg>
